<svg xmlns="http://www.w3.org/2000/svg" width="9.935" height="4.981" viewBox="0 0 9.935 4.981">
  <g id="Group_323" data-name="Group 323" transform="translate(-2347 -597.477)">
    <g id="Path_248" data-name="Path 248" transform="translate(2347 601.836) rotate(-90)" fill="none">
      <path d="M1.869,0A1.823,1.823,0,0,1,3.737,1.774V8.16A1.823,1.823,0,0,1,1.869,9.935,1.823,1.823,0,0,1,0,8.16V1.774A1.823,1.823,0,0,1,1.869,0Z" stroke="none"/>
      <path d="M 1.868640899658203 0.6000041961669922 C 1.169111013412476 0.6000041961669922 0.6000008583068848 1.126665115356445 0.6000008583068848 1.774014472961426 L 0.6000008583068848 8.160494804382324 C 0.6000008583068848 8.807844161987305 1.169111013412476 9.334505081176758 1.868640899658203 9.334505081176758 C 2.56817102432251 9.334505081176758 3.137280941009521 8.807844161987305 3.137280941009521 8.160494804382324 L 3.137280941009521 1.774014472961426 C 3.137280941009521 1.126665115356445 2.56817102432251 0.6000041961669922 1.868640899658203 0.6000041961669922 M 1.868640899658203 4.76837158203125e-06 C 2.900660991668701 4.76837158203125e-06 3.73728084564209 0.7942543029785156 3.73728084564209 1.774014472961426 L 3.73728084564209 8.160494804382324 C 3.73728084564209 9.140254974365234 2.900660991668701 9.934504508972168 1.868640899658203 9.934504508972168 C 0.8366208076477051 9.934504508972168 9.5367431640625e-07 9.140254974365234 9.5367431640625e-07 8.160494804382324 L 9.5367431640625e-07 1.774014472961426 C 9.5367431640625e-07 0.7942543029785156 0.8366208076477051 4.76837158203125e-06 1.868640899658203 4.76837158203125e-06 Z" stroke="none" fill="#53565a"/>
    </g>
    <g id="Ellipse_67" data-name="Ellipse 67" transform="translate(2347 602.458) rotate(-90)" fill="#47e562" stroke="#53565a" stroke-width="0.6">
      <ellipse cx="2.491" cy="2.491" rx="2.491" ry="2.491" stroke="none"/>
      <ellipse cx="2.491" cy="2.491" rx="2.191" ry="2.191" fill="none"/>
    </g>
  </g>
</svg>
