<svg xmlns="http://www.w3.org/2000/svg" width="10" height="10" viewBox="0 0 10 10">
  <path id="Path_429" data-name="Path 429" d="M9.688,6.188a.313.313,0,0,0,0-.625A4.38,4.38,0,0,0,5.313,9.938a.313.313,0,0,0,.625,0A3.753,3.753,0,0,1,9.688,6.188ZM5.625,1.5V6.188a.313.313,0,0,0,.625,0V1.5A1.25,1.25,0,0,0,5,.25H1.25A1.25,1.25,0,0,0,0,1.5V9a1.25,1.25,0,0,0,1.25,1.25H4.063a.313.313,0,0,0,0-.625H1.25A.625.625,0,0,1,.625,9V1.5A.625.625,0,0,1,1.25.875H5A.625.625,0,0,1,5.625,1.5ZM2.5,8.063a.313.313,0,0,0,0,.625H3.75a.313.313,0,0,0,0-.625ZM9.375,9A.625.625,0,1,0,10,9.625.625.625,0,0,0,9.375,9Zm.313-1.875A2.815,2.815,0,0,0,6.875,9.938a.313.313,0,0,0,.625,0A2.19,2.19,0,0,1,9.688,7.75a.313.313,0,0,0,0-.625Z" transform="translate(0 -0.25)" fill="#53565a"/>
</svg>
