<svg xmlns="http://www.w3.org/2000/svg" width="7.5" height="10" viewBox="0 0 7.5 10">
  <path id="Path_434" data-name="Path 434" d="M6.25,1.5a.313.313,0,0,0,0,.625.626.626,0,0,1,.625.625V9a.626.626,0,0,1-.625.625h-5A.626.626,0,0,1,.625,9V2.75a.626.626,0,0,1,.625-.625.313.313,0,1,0,0-.625A1.251,1.251,0,0,0,0,2.75V9a1.251,1.251,0,0,0,1.25,1.25h5A1.251,1.251,0,0,0,7.5,9V2.75A1.251,1.251,0,0,0,6.25,1.5ZM2.188,2.75H5.313a.313.313,0,0,0,0-.625H4.827a1.25,1.25,0,1,0-2.153,0H2.188a.313.313,0,0,0,0,.625ZM3.75.875a.625.625,0,1,1-.625.625A.626.626,0,0,1,3.75.875ZM1.654,6.1,2.9,7.346a.312.312,0,0,0,.442,0l2.5-2.5A.312.312,0,0,0,5.4,4.4L3.125,6.684,2.1,5.654a.312.312,0,1,0-.442.441Z" transform="translate(0 -0.25)" fill="#53565a"/>
</svg>
