<svg xmlns="http://www.w3.org/2000/svg" width="11.25" height="6.25" viewBox="0 0 11.25 6.25">
  <path id="Path_440" data-name="Path 440" d="M8.75,2.125H1.25A1.251,1.251,0,0,0,0,3.375v3.75a1.25,1.25,0,0,0,1.25,1.25h7.5A1.25,1.25,0,0,0,10,7.125V3.375A1.251,1.251,0,0,0,8.75,2.125Zm.625,5a.626.626,0,0,1-.625.625H1.25a.626.626,0,0,1-.625-.625V3.375A.626.626,0,0,1,1.25,2.75h7.5a.626.626,0,0,1,.625.625ZM10.938,4a.313.313,0,0,0-.312.313V6.188a.313.313,0,0,0,.625,0V4.313A.313.313,0,0,0,10.938,4Z" transform="translate(0 -2.125)" fill="#53565a"/>
</svg>
