<svg xmlns="http://www.w3.org/2000/svg" width="8.75" height="10" viewBox="0 0 8.75 10">
  <path id="Path_516" data-name="Path 516" d="M7.828,2.75a.313.313,0,0,0-.311.285L6.953,9.34a.311.311,0,0,1-.311.285H2.107A.312.312,0,0,1,1.8,9.34l-.563-6.3a.312.312,0,1,0-.622.055l.563,6.3a.937.937,0,0,0,.933.855H6.645A.937.937,0,0,0,7.577,9.4l.563-6.3A.315.315,0,0,0,7.828,2.75ZM8.438,1.5H6.563L5.906.626A.933.933,0,0,0,5.156.25H3.594a.935.935,0,0,0-.75.376L2.187,1.5H.312a.313.313,0,0,0,0,.625H8.438a.313.313,0,0,0,0-.625Zm-5.469,0L3.345,1A.314.314,0,0,1,3.594.875H5.156A.312.312,0,0,1,5.405,1l.376.5Z" transform="translate(0 -0.25)" fill="#53565a"/>
</svg>
