<svg xmlns="http://www.w3.org/2000/svg" width="16.25" height="29.25" viewBox="0 0 16.25 29.25">
  <path id="Path_348" data-name="Path 348" d="M33.125,5.125h-19.5a3.251,3.251,0,0,0-3.25,3.25v9.75a3.25,3.25,0,0,0,3.25,3.25h19.5a3.25,3.25,0,0,0,3.25-3.25V8.375A3.253,3.253,0,0,0,33.125,5.125Zm1.625,13a1.627,1.627,0,0,1-1.625,1.625h-19.5A1.627,1.627,0,0,1,12,18.125V8.375A1.627,1.627,0,0,1,13.625,6.75h19.5A1.627,1.627,0,0,1,34.75,8.375ZM38.813,10a.815.815,0,0,0-.812.813v4.875a.813.813,0,0,0,1.625,0V10.813A.815.815,0,0,0,38.813,10Z" transform="translate(-5.125 39.625) rotate(-90)" fill="#fff"/>
</svg>
