<svg xmlns="http://www.w3.org/2000/svg" width="24.5" height="28" viewBox="0 0 24.5 28">
  <path id="Path_345" data-name="Path 345" d="M25.169,7.5a.875.875,0,0,0-.872.8L22.719,25.952a.871.871,0,0,1-.87.8H9.151a.873.873,0,0,1-.87-.8L6.7,8.3a.875.875,0,1,0-1.743.153L6.538,26.1a2.624,2.624,0,0,0,2.612,2.4h12.7a2.624,2.624,0,0,0,2.611-2.393L26.043,8.454A.883.883,0,0,0,25.169,7.5ZM26.875,4h-5.25L19.786,1.553A2.612,2.612,0,0,0,17.688.5H13.312a2.617,2.617,0,0,0-2.1,1.053L9.375,4H4.125a.875.875,0,0,0,0,1.75h22.75a.875.875,0,0,0,0-1.75ZM11.562,4l1.053-1.4a.878.878,0,0,1,.7-.349h4.375a.874.874,0,0,1,.7.349L19.438,4Z" transform="translate(-3.25 -0.5)" fill="#fff"/>
</svg>
