<svg xmlns="http://www.w3.org/2000/svg" width="24.691" height="9.693" viewBox="0 0 24.691 9.693">
  <path id="Path_347" data-name="Path 347" d="M-4553.389,3933.7a.878.878,0,0,1-.839-.633.869.869,0,0,1,.074-.665.872.872,0,0,1,.524-.418l5.068-1.358,1.142-2.838a2.627,2.627,0,0,1,1.755-1.56l4.222-1.13a2.609,2.609,0,0,1,.679-.09,2.634,2.634,0,0,1,1.621.562l2.409,1.887,5.069-1.358a.846.846,0,0,1,.211-.026.876.876,0,0,1,.84.632.868.868,0,0,1-.073.666.868.868,0,0,1-.523.418l-21.967,5.886A.886.886,0,0,1-4553.389,3933.7Zm12.636-6.945a.864.864,0,0,0-.232.031l-4.224,1.132a.887.887,0,0,0-.583.518l-.654,1.625,7.605-2.042-1.378-1.081A.877.877,0,0,0-4540.753,3926.755Z" transform="translate(4554.766 -3924.508)" fill="#fff" stroke="rgba(0,0,0,0)" stroke-width="1"/>
</svg>
