<svg xmlns="http://www.w3.org/2000/svg" width="8.75" height="8.75" viewBox="0 0 8.75 8.75">
  <path id="Path_418" data-name="Path 418" d="M8.43,4.656,4.969,1.2A1.261,1.261,0,0,0,4.2.875H.547A.547.547,0,0,0,0,1.422V5.07a1.261,1.261,0,0,0,.32.773L3.781,9.3a1.094,1.094,0,0,0,1.547,0l3.1-3.1A1.093,1.093,0,0,0,8.43,4.656ZM7.971,5.762l-3.1,3.1A.4.4,0,0,1,4.555,9a.465.465,0,0,1-.331-.137L.762,5.4A.682.682,0,0,1,.625,5.07V1.5H4.2a.683.683,0,0,1,.331.137L7.988,5.1a.468.468,0,0,1,.137.331A.425.425,0,0,1,7.971,5.762ZM2.17,2.594a.469.469,0,1,0,.469.469A.458.458,0,0,0,2.17,2.594Z" transform="translate(0 -0.875)" fill="#53565a"/>
</svg>
