<svg xmlns="http://www.w3.org/2000/svg" width="11.25" height="9.982" viewBox="0 0 11.25 9.982">
  <path id="Path_424" data-name="Path 424" d="M2.324,1.482a.308.308,0,0,0-.3.217,3.889,3.889,0,0,0-.149,1.033,3.785,3.785,0,0,0,.149,1.033.307.307,0,0,0,.3.217.311.311,0,0,0,.3-.4,2.862,2.862,0,0,1-.12-.849,2.963,2.963,0,0,1,.12-.849.315.315,0,0,0-.3-.4ZM.791.25a.361.361,0,0,0-.3.178A5.853,5.853,0,0,0,0,2.732a6.032,6.032,0,0,0,.49,2.34.344.344,0,0,0,.3.16.311.311,0,0,0,.281-.444A4.83,4.83,0,0,1,.625,2.732,4.88,4.88,0,0,1,1.072.678.3.3,0,0,0,.791.25ZM8.928,1.482a.311.311,0,0,0-.3.4,3.21,3.21,0,0,1,.12.85,3.15,3.15,0,0,1-.12.85.312.312,0,0,0,.6.183,3.48,3.48,0,0,0,.149-1.033A3.6,3.6,0,0,0,9.226,1.7.328.328,0,0,0,8.928,1.482Zm1.8-1.054A.271.271,0,0,0,10.459.25a.311.311,0,0,0-.281.444,4.912,4.912,0,0,1,.447,2.038A5.062,5.062,0,0,1,10.178,4.8a.312.312,0,0,0,.564.266,5.6,5.6,0,0,0,.508-2.338A5.21,5.21,0,0,0,10.725.428Zm-5.4,1.107a1.249,1.249,0,0,0-.014,2.422v5.98a.3.3,0,0,0,.313.295.309.309,0,0,0,.313-.295V3.957a1.249,1.249,0,0,0-.611-2.422Zm.3,1.84A.626.626,0,0,1,5,2.75a.611.611,0,0,1,.625-.607.622.622,0,0,1,.625.607A.638.638,0,0,1,5.625,3.375Z" transform="translate(0 -0.25)" fill="#53565a"/>
</svg>
