<svg xmlns="http://www.w3.org/2000/svg" width="10" height="10" viewBox="0 0 10 10">
  <path id="Path_403" data-name="Path 403" d="M5,.25a5,5,0,1,0,5,5A5,5,0,0,0,5,.25ZM5,9.625a4.347,4.347,0,0,1-2.484-.778A1.872,1.872,0,0,1,4.375,7.125h1.25a1.871,1.871,0,0,1,1.86,1.722A4.355,4.355,0,0,1,5,9.625ZM8.041,8.389A2.5,2.5,0,0,0,5.625,6.5H4.375A2.5,2.5,0,0,0,1.959,8.389a4.375,4.375,0,1,1,6.082,0ZM5,2.75A1.563,1.563,0,1,0,6.563,4.313,1.562,1.562,0,0,0,5,2.75Zm0,2.5a.938.938,0,1,1,.938-.937A.938.938,0,0,1,5,5.25Z" transform="translate(0 -0.25)" fill="#53565a"/>
</svg>
