<svg xmlns="http://www.w3.org/2000/svg" width="8.768" height="10" viewBox="0 0 8.768 10">
  <path id="Path_407" data-name="Path 407" d="M5.314,9a.347.347,0,0,0-.33.212.655.655,0,0,1-.627.413.634.634,0,0,1-.61-.413A.307.307,0,0,0,3.434,9a.3.3,0,0,0-.295.385,1.3,1.3,0,0,0,2.453,0A.277.277,0,0,0,5.314,9Zm3.15-2.211C7.918,6.271,7.5,5.727,7.5,3.881A3.048,3.048,0,0,0,4.688.9V.563a.313.313,0,0,0-.625,0V.9a3.065,3.065,0,0,0-2.83,2.977c0,1.846-.418,2.391-.964,2.908a.91.91,0,0,0-.22,1,.971.971,0,0,0,.889.585H7.812a.941.941,0,0,0,.872-.568A.927.927,0,0,0,8.465,6.789Zm-.652.961H.937a.287.287,0,0,1-.222-.49C1.4,6.61,1.875,5.885,1.875,3.9a2.433,2.433,0,0,1,2.5-2.4,2.44,2.44,0,0,1,2.5,2.381c0,1.98.474,2.711,1.16,3.361A.3.3,0,0,1,7.813,7.75ZM4.375,5.25a.312.312,0,0,0,.313-.312V2.75a.313.313,0,0,0-.625,0V4.938A.313.313,0,0,0,4.375,5.25Zm0,.469a.469.469,0,1,0,.469.469A.469.469,0,0,0,4.375,5.719Z" transform="translate(0.018 -0.25)" fill="#f2050d"/>
</svg>
