<svg xmlns="http://www.w3.org/2000/svg" width="12.5" height="10" viewBox="0 0 12.5 10">
  <path id="Path_410" data-name="Path 410" d="M.8.841l1.25.625a.3.3,0,0,0,.139.034.315.315,0,0,0,.305-.242A.31.31,0,0,0,2.326.909L1.076.284A.308.308,0,0,0,.659.423.308.308,0,0,0,.8.841Zm9.514.659a.308.308,0,0,0,.139-.034L11.7.841a.308.308,0,0,0,.139-.418.308.308,0,0,0-.418-.139l-1.25.625a.311.311,0,0,0,.139.591ZM1.563,3.375H.313A.313.313,0,0,0,.313,4h1.25a.313.313,0,1,0,0-.625Zm10.625,0h-1.25a.313.313,0,0,0,0,.625h1.25a.313.313,0,0,0,0-.625ZM7.189,9a.347.347,0,0,0-.33.212.655.655,0,0,1-.627.413.634.634,0,0,1-.61-.413A.307.307,0,0,0,5.309,9a.3.3,0,0,0-.295.385,1.3,1.3,0,0,0,2.453,0A.277.277,0,0,0,7.189,9ZM9.375,3.881A3.048,3.048,0,0,0,6.563.9V.563a.313.313,0,0,0-.625,0V.9a3.065,3.065,0,0,0-2.83,2.977c0,1.846-.418,2.391-.964,2.908a.91.91,0,0,0-.22,1,.964.964,0,0,0,.872.585H9.67a.941.941,0,0,0,.872-.568.91.91,0,0,0-.22-1c-.529-.534-.947-1.079-.947-2.925ZM9.688,7.75H2.795a.287.287,0,0,1-.222-.49c.681-.649,1.16-1.375,1.16-3.361A2.459,2.459,0,0,1,6.25,1.5a2.44,2.44,0,0,1,2.5,2.381c0,1.98.474,2.711,1.16,3.361A.3.3,0,0,1,9.688,7.75Z" transform="translate(0 -0.25)" fill="#fdb514"/>
</svg>
