<svg xmlns="http://www.w3.org/2000/svg" width="299.922" height="101.304" viewBox="0 0 299.922 101.304">
  <g id="Group_755" data-name="Group 755" transform="translate(-31.078 -3162)">
    <path id="Path_453" data-name="Path 453" d="M0,172.583V156.511H3.782v2.475a6.906,6.906,0,0,1,1.668-2.044,2.989,2.989,0,0,1,1.835-.626,2.686,2.686,0,0,1,.292.014q.126.014.292.042v3.92a4.959,4.959,0,0,0-.737-.237,3.512,3.512,0,0,0-.82-.1,2.63,2.63,0,0,0-1.363.362,3.781,3.781,0,0,0-1.168,1.2v11.067Z" transform="translate(31.078 3085.437)" fill="#72c45f"/>
    <path id="Path_454" data-name="Path 454" d="M22.013,172.78a5.685,5.685,0,0,1-2.947-.681,4.037,4.037,0,0,1-1.682-2,8.373,8.373,0,0,1-.542-3.184v-4.838a8.435,8.435,0,0,1,.542-3.226,3.954,3.954,0,0,1,1.7-1.974,5.8,5.8,0,0,1,2.934-.667,5.3,5.3,0,0,1,2.989.723,3.944,3.944,0,0,1,1.529,2.1,10.691,10.691,0,0,1,.459,3.351v2.28h-6.4v3.17a4.466,4.466,0,0,0,.153,1.28,1.276,1.276,0,0,0,.487.723,1.418,1.418,0,0,0,.806.222,1.287,1.287,0,0,0,.807-.236,1.344,1.344,0,0,0,.445-.7,4.058,4.058,0,0,0,.139-1.154v-1.335h3.531v1.084a5.291,5.291,0,0,1-1.223,3.754,4.87,4.87,0,0,1-3.726,1.307M20.595,162.8h2.836v-1.529a5.349,5.349,0,0,0-.139-1.349,1.368,1.368,0,0,0-.445-.751,1.386,1.386,0,0,0-.862-.236,1.232,1.232,0,0,0-.806.25,1.489,1.489,0,0,0-.445.834,7.632,7.632,0,0,0-.139,1.668Z" transform="translate(22.829 3085.49)" fill="#72c45f"/>
    <path id="Path_455" data-name="Path 455" d="M42.879,172.78a3.068,3.068,0,0,1-1.863-.57,3.773,3.773,0,0,1-1.2-1.446,4.189,4.189,0,0,1-.417-1.821,5,5,0,0,1,2.03-4.254,10.365,10.365,0,0,1,2.085-1.21q1.168-.514,2.364-.931v-1.39a5.917,5.917,0,0,0-.1-1.168,1.34,1.34,0,0,0-.361-.723,1.158,1.158,0,0,0-.82-.251,1.228,1.228,0,0,0-.765.223,1.21,1.21,0,0,0-.417.625,3.824,3.824,0,0,0-.153.932l-.056.973-3.587-.139a5.939,5.939,0,0,1,1.377-4.1,5.284,5.284,0,0,1,3.935-1.321,4.3,4.3,0,0,1,3.517,1.335,5.52,5.52,0,0,1,1.1,3.615v7.423q0,.891.042,1.613t.111,1.307q.069.584.125,1.029H46.438q-.083-.556-.209-1.265t-.181-1.043a4.114,4.114,0,0,1-1.057,1.766,2.829,2.829,0,0,1-2.113.792m1.39-2.808a1.364,1.364,0,0,0,.681-.181,2.674,2.674,0,0,0,.57-.431,2.255,2.255,0,0,0,.361-.445v-4.477q-.612.362-1.154.723a5.365,5.365,0,0,0-.945.792,3.124,3.124,0,0,0-.612.932,3.025,3.025,0,0,0-.209,1.168,2.474,2.474,0,0,0,.348,1.4,1.1,1.1,0,0,0,.959.515" transform="translate(11.779 3085.49)" fill="#72c45f"/>
    <g id="Group_754" data-name="Group 754" transform="translate(31.079 3162)">
      <path id="Path_445" data-name="Path 445" d="M0,26.215H16.185v5.633Q22.8,25.5,31.028,25.5a17.259,17.259,0,0,1,15.557,8.584A17.351,17.351,0,0,1,62.143,25.41a19.381,19.381,0,0,1,6.08.939A12.508,12.508,0,0,1,73.141,29.3a14.124,14.124,0,0,1,3.265,5.231,22.23,22.23,0,0,1,1.207,7.779V72.082H61.43V49.462a27.5,27.5,0,0,0-.492-5.722,9.063,9.063,0,0,0-1.429-3.487,4.748,4.748,0,0,0-2.191-1.7,7.947,7.947,0,0,0-2.682-.447q-7.778,0-7.779,11.355V72.082H30.67V49.462a30.789,30.789,0,0,0-.447-5.765,10.654,10.654,0,0,0-1.3-3.622,4.337,4.337,0,0,0-2.19-1.833,9.1,9.1,0,0,0-3.13-.492,8.993,8.993,0,0,0-2.861.447,5.086,5.086,0,0,0-2.369,1.743,9.492,9.492,0,0,0-1.609,3.577,24.754,24.754,0,0,0-.582,5.946V72.083H0Z" transform="translate(-0.002 -12.445)" fill="#204b30"/>
      <path id="Path_446" data-name="Path 446" d="M197.929,25.613H214.2V71.48H197.929v-5.1a16.969,16.969,0,0,1-14.037,6.527,22.8,22.8,0,0,1-9.21-1.833,22.172,22.172,0,0,1-7.331-5.141,23.692,23.692,0,0,1-4.873-7.779,26.605,26.605,0,0,1-1.743-9.745,25.826,25.826,0,0,1,1.7-9.343,24,24,0,0,1,4.738-7.734,22.365,22.365,0,0,1,7.242-5.231,22.094,22.094,0,0,1,9.3-1.922,18.682,18.682,0,0,1,14.216,5.99Zm-20.384,22.8a10.7,10.7,0,0,0,3,7.511,9.8,9.8,0,0,0,3.307,2.235,10.662,10.662,0,0,0,4.158.8,10.433,10.433,0,0,0,4.068-.8,9.842,9.842,0,0,0,3.309-2.235,11.573,11.573,0,0,0,2.235-3.308,9.659,9.659,0,0,0,.85-4.023,9.974,9.974,0,0,0-.85-4.068,11.434,11.434,0,0,0-2.235-3.353,9.862,9.862,0,0,0-3.309-2.235,10.433,10.433,0,0,0-4.068-.8,10.662,10.662,0,0,0-4.158.8,9.836,9.836,0,0,0-3.307,2.235,11,11,0,0,0-2.191,3.265,9.78,9.78,0,0,0-.805,3.977" transform="translate(-78.727 -11.844)" fill="#fff"/>
      <path id="Path_447" data-name="Path 447" d="M294.772,27.271V59.638H278.589V27.271h-5.365V13.77h5.365V0h16.183V13.77h9.21v13.5Z" transform="translate(-133.825 0)" fill="#fff"/>
      <path id="Path_448" data-name="Path 448" d="M353.355,27.271V59.638H337.171V27.271h-5.364V13.77h5.364V0h16.184V13.77h9.209v13.5Z" transform="translate(-162.518 0)" fill="#fff"/>
      <path id="Path_449" data-name="Path 449" d="M408.744,51.014q0,10.459,9.835,10.459a8.789,8.789,0,0,0,7.959-4.292h15.647Q437.443,72.92,418.492,72.92a31.124,31.124,0,0,1-10.639-1.743,23.743,23.743,0,0,1-8.27-4.962,22.106,22.106,0,0,1-5.325-7.69,25.611,25.611,0,0,1-1.877-10.014,28.316,28.316,0,0,1,1.786-10.327,21.714,21.714,0,0,1,5.1-7.823,22.584,22.584,0,0,1,8.006-4.962,30.268,30.268,0,0,1,10.6-1.743A29.622,29.622,0,0,1,428.323,25.4a21.2,21.2,0,0,1,7.869,5.051,21.979,21.979,0,0,1,4.917,8.092,32.076,32.076,0,0,1,1.7,10.774v1.7ZM427.7,41.627a9.75,9.75,0,0,0-3.309-5.454,10.261,10.261,0,0,0-12.2-.09,8.906,8.906,0,0,0-3,5.543Z" transform="translate(-192.185 -11.584)" fill="#fff"/>
      <path id="Path_450" data-name="Path 450" d="M500.667,26.039H516.85v7.51a18.6,18.6,0,0,1,6.348-6.3,17.084,17.084,0,0,1,8.763-2.191h1.386a9.954,9.954,0,0,1,1.743.179V40.7a15.375,15.375,0,0,0-6.975-1.609q-5.632,0-8.448,3.353t-2.817,9.79v19.67H500.667Z" transform="translate(-245.225 -12.27)" fill="#fff"/>
      <path id="Path_451" data-name="Path 451" d="M557.246,96.815a7.806,7.806,0,1,1,4.8,7.242,7.7,7.7,0,0,1-4.191-4.191,7.809,7.809,0,0,1-.6-3.051" transform="translate(-272.937 -43.615)" fill="#43b02a"/>
      <path id="Path_452" data-name="Path 452" d="M0,26.215H16.185v5.633Q22.8,25.5,31.028,25.5a17.259,17.259,0,0,1,15.557,8.584A17.351,17.351,0,0,1,62.143,25.41a19.381,19.381,0,0,1,6.08.939A12.508,12.508,0,0,1,73.141,29.3a14.124,14.124,0,0,1,3.265,5.231,22.23,22.23,0,0,1,1.207,7.779V72.082H61.43V49.462a27.5,27.5,0,0,0-.492-5.722,9.063,9.063,0,0,0-1.429-3.487,4.748,4.748,0,0,0-2.191-1.7,7.947,7.947,0,0,0-2.682-.447q-7.778,0-7.779,11.355V72.082H30.67V49.462a30.789,30.789,0,0,0-.447-5.765,10.654,10.654,0,0,0-1.3-3.622,4.337,4.337,0,0,0-2.19-1.833,9.1,9.1,0,0,0-3.13-.492,8.993,8.993,0,0,0-2.861.447,5.086,5.086,0,0,0-2.369,1.743,9.492,9.492,0,0,0-1.609,3.577,24.754,24.754,0,0,0-.582,5.946V72.083H0Z" transform="translate(-0.002 -12.445)" fill="#fff"/>
      <rect id="Rectangle_2705" data-name="Rectangle 2705" width="3.754" height="22.523" transform="translate(32.449 73.497)" fill="#72c45f"/>
      <rect id="Rectangle_2706" data-name="Rectangle 2706" width="6.702" height="2.558" transform="translate(38.51 85.649)" fill="#72c45f"/>
      <path id="Path_456" data-name="Path 456" d="M95.541,168.347a4.863,4.863,0,0,1-2.405-.5A2.749,2.749,0,0,1,91.9,166.4a6.308,6.308,0,0,1-.361-2.252v-9.566H89.924v-2.5h1.613v-4.811h3.81v4.811h2.447v2.5H95.346v9.232A1.6,1.6,0,0,0,95.708,165a1.509,1.509,0,0,0,1.085.347q.305,0,.6-.027l.57-.056v2.892q-.473.055-1.1.125a11.955,11.955,0,0,1-1.321.07" transform="translate(-44.045 -72.132)" fill="#72c45f"/>
      <path id="Path_457" data-name="Path 457" d="M108.507,145.525h3.782v3.142h-3.782Zm0,5.7h3.782V167.3h-3.782Z" transform="translate(-53.147 -71.278)" fill="#72c45f"/>
      <path id="Path_458" data-name="Path 458" d="M120.17,172.476V156.4h3.643v1.39a5.239,5.239,0,0,1,1.807-1.293,5.126,5.126,0,0,1,1.974-.4,2.915,2.915,0,0,1,1.654.473,2.738,2.738,0,0,1,1.043,1.5,5.686,5.686,0,0,1,1.946-1.515,5.134,5.134,0,0,1,2.113-.459,2.761,2.761,0,0,1,1.529.431,2.926,2.926,0,0,1,1.057,1.279,5.1,5.1,0,0,1,.389,2.128v12.54h-3.614V160.269a1.957,1.957,0,0,0-.306-1.265,1.089,1.089,0,0,0-.862-.348,2.384,2.384,0,0,0-.987.251,3.412,3.412,0,0,0-.987.7v12.874h-3.587V160.269a1.894,1.894,0,0,0-.32-1.265,1.133,1.133,0,0,0-.876-.348,2.293,2.293,0,0,0-.973.251,3.891,3.891,0,0,0-1,.7v12.874Z" transform="translate(-58.86 -76.456)" fill="#72c45f"/>
      <path id="Path_459" data-name="Path 459" d="M162.238,172.78a5.685,5.685,0,0,1-2.947-.681,4.037,4.037,0,0,1-1.682-2,8.373,8.373,0,0,1-.542-3.184v-4.838a8.435,8.435,0,0,1,.542-3.226,3.954,3.954,0,0,1,1.7-1.974,5.8,5.8,0,0,1,2.934-.667,5.3,5.3,0,0,1,2.989.723,3.944,3.944,0,0,1,1.529,2.1,10.691,10.691,0,0,1,.459,3.351v2.28h-6.4v3.17a4.465,4.465,0,0,0,.153,1.28,1.276,1.276,0,0,0,.487.723,1.418,1.418,0,0,0,.806.222,1.287,1.287,0,0,0,.807-.236,1.344,1.344,0,0,0,.445-.7,4.058,4.058,0,0,0,.139-1.154v-1.335h3.531v1.084a5.291,5.291,0,0,1-1.223,3.754,4.87,4.87,0,0,1-3.726,1.307M160.82,162.8h2.836v-1.529a5.349,5.349,0,0,0-.139-1.349,1.368,1.368,0,0,0-.445-.751,1.386,1.386,0,0,0-.862-.236,1.232,1.232,0,0,0-.806.25,1.489,1.489,0,0,0-.445.834,7.63,7.63,0,0,0-.139,1.668Z" transform="translate(-76.931 -76.51)" fill="#72c45f"/>
      <path id="Path_460" data-name="Path 460" d="M189.079,172.77,186.6,156.7h3.142l1.418,10.428,1.668-10.428h2.809l1.585,10.538,1.53-10.538h2.975L199.2,172.77H196l-1.779-10.15-1.863,10.15Z" transform="translate(-91.399 -76.75)" fill="#72c45f"/>
      <path id="Path_461" data-name="Path 461" d="M221.58,172.78a3.068,3.068,0,0,1-1.863-.57,3.773,3.773,0,0,1-1.2-1.446,4.189,4.189,0,0,1-.417-1.821,5,5,0,0,1,2.03-4.254,10.365,10.365,0,0,1,2.085-1.21q1.168-.514,2.364-.931v-1.39a5.915,5.915,0,0,0-.1-1.168,1.34,1.34,0,0,0-.361-.723,1.158,1.158,0,0,0-.82-.251,1.228,1.228,0,0,0-.765.223,1.21,1.21,0,0,0-.417.625,3.824,3.824,0,0,0-.153.932l-.056.973-3.587-.139a5.939,5.939,0,0,1,1.377-4.1,5.284,5.284,0,0,1,3.935-1.321,4.3,4.3,0,0,1,3.517,1.335,5.52,5.52,0,0,1,1.1,3.615v7.423q0,.891.042,1.613t.111,1.307q.069.584.125,1.029h-3.392q-.083-.556-.209-1.265t-.181-1.043a4.114,4.114,0,0,1-1.057,1.766,2.829,2.829,0,0,1-2.113.792m1.39-2.808a1.364,1.364,0,0,0,.681-.181,2.674,2.674,0,0,0,.57-.431,2.255,2.255,0,0,0,.361-.445v-4.477q-.612.362-1.154.723a5.365,5.365,0,0,0-.945.792,3.124,3.124,0,0,0-.612.932,3.025,3.025,0,0,0-.209,1.168,2.474,2.474,0,0,0,.348,1.4,1.1,1.1,0,0,0,.959.515" transform="translate(-106.827 -76.51)" fill="#72c45f"/>
      <path id="Path_462" data-name="Path 462" d="M245.377,172.781a5.049,5.049,0,0,1-3.337-1.084,5.969,5.969,0,0,1-1.863-3.17l2.808-1.085a5.3,5.3,0,0,0,.89,2,1.764,1.764,0,0,0,1.446.7,1.362,1.362,0,0,0,1-.334,1.241,1.241,0,0,0,.334-.918,1.979,1.979,0,0,0-.4-1.209,8.689,8.689,0,0,0-1.377-1.349l-1.946-1.64a9.909,9.909,0,0,1-1.71-1.877,4.175,4.175,0,0,1-.654-2.405,3.89,3.89,0,0,1,2.238-3.685,5.179,5.179,0,0,1,2.322-.514,4.287,4.287,0,0,1,3.129,1.154,5.426,5.426,0,0,1,1.515,3.017l-2.475,1.057a5.712,5.712,0,0,0-.4-1.238,2.728,2.728,0,0,0-.681-.931,1.439,1.439,0,0,0-.973-.362,1.23,1.23,0,0,0-.932.362,1.267,1.267,0,0,0-.348.917,1.567,1.567,0,0,0,.4.973,9.01,9.01,0,0,0,1.154,1.14l1.974,1.779a15.091,15.091,0,0,1,1.223,1.2,6.114,6.114,0,0,1,.973,1.432,4.08,4.08,0,0,1,.389,1.821,4.139,4.139,0,0,1-.626,2.336,3.943,3.943,0,0,1-1.7,1.432,5.688,5.688,0,0,1-2.378.486" transform="translate(-117.639 -76.511)" fill="#72c45f"/>
      <path id="Path_463" data-name="Path 463" d="M265.686,168.347a4.863,4.863,0,0,1-2.405-.5,2.749,2.749,0,0,1-1.238-1.446,6.308,6.308,0,0,1-.361-2.252v-9.566h-1.613v-2.5h1.613v-4.811h3.81v4.811h2.447v2.5h-2.447v9.232a1.6,1.6,0,0,0,.361,1.182,1.509,1.509,0,0,0,1.085.347q.305,0,.6-.027l.57-.056v2.892q-.473.055-1.1.125a11.956,11.956,0,0,1-1.321.07" transform="translate(-127.382 -72.132)" fill="#72c45f"/>
      <path id="Path_464" data-name="Path 464" d="M283.007,172.78a5.685,5.685,0,0,1-2.947-.681,4.037,4.037,0,0,1-1.682-2,8.373,8.373,0,0,1-.542-3.184v-4.838a8.435,8.435,0,0,1,.542-3.226,3.954,3.954,0,0,1,1.7-1.974,5.8,5.8,0,0,1,2.934-.667,5.3,5.3,0,0,1,2.989.723,3.944,3.944,0,0,1,1.529,2.1,10.69,10.69,0,0,1,.459,3.351v2.28h-6.4v3.17a4.465,4.465,0,0,0,.153,1.28,1.276,1.276,0,0,0,.487.723,1.418,1.418,0,0,0,.806.222,1.287,1.287,0,0,0,.807-.236,1.344,1.344,0,0,0,.445-.7,4.058,4.058,0,0,0,.139-1.154v-1.335h3.531v1.084a5.291,5.291,0,0,1-1.223,3.754,4.87,4.87,0,0,1-3.726,1.307m-1.418-9.982h2.836v-1.529a5.349,5.349,0,0,0-.139-1.349,1.368,1.368,0,0,0-.445-.751,1.386,1.386,0,0,0-.862-.236,1.232,1.232,0,0,0-.806.25,1.489,1.489,0,0,0-.445.834,7.635,7.635,0,0,0-.139,1.668Z" transform="translate(-136.083 -76.51)" fill="#72c45f"/>
      <path id="Path_465" data-name="Path 465" d="M309.118,145.525H312.9v3.142h-3.782Zm0,5.7H312.9V167.3h-3.782Z" transform="translate(-151.406 -71.278)" fill="#72c45f"/>
      <path id="Path_466" data-name="Path 466" d="M320.781,172.53V156.458h3.782v1.613a8.178,8.178,0,0,1,1.821-1.348,4.315,4.315,0,0,1,2.071-.514,2.4,2.4,0,0,1,1.585.486,2.847,2.847,0,0,1,.862,1.293,5.35,5.35,0,0,1,.278,1.752V172.53H327.4V160.49a2.271,2.271,0,0,0-.222-1.112.905.905,0,0,0-.862-.389,1.959,1.959,0,0,0-.849.222,5.576,5.576,0,0,0-.9.556V172.53Z" transform="translate(-157.118 -76.51)" fill="#72c45f"/>
      <path id="Path_467" data-name="Path 467" d="M348.688,168.347a4.863,4.863,0,0,1-2.405-.5,2.749,2.749,0,0,1-1.238-1.446,6.307,6.307,0,0,1-.361-2.252v-9.566h-1.613v-2.5h1.613v-4.811h3.81v4.811h2.447v2.5h-2.447v9.232a1.6,1.6,0,0,0,.361,1.182,1.509,1.509,0,0,0,1.085.347q.305,0,.6-.027l.57-.056v2.892q-.473.055-1.1.125a11.955,11.955,0,0,1-1.321.07" transform="translate(-168.036 -72.132)" fill="#72c45f"/>
      <path id="Path_468" data-name="Path 468" d="M366.009,172.78a5.685,5.685,0,0,1-2.947-.681,4.037,4.037,0,0,1-1.682-2,8.373,8.373,0,0,1-.542-3.184v-4.838a8.435,8.435,0,0,1,.542-3.226,3.954,3.954,0,0,1,1.7-1.974,5.8,5.8,0,0,1,2.934-.667,5.3,5.3,0,0,1,2.989.723,3.944,3.944,0,0,1,1.529,2.1,10.691,10.691,0,0,1,.459,3.351v2.28h-6.4v3.17a4.465,4.465,0,0,0,.153,1.28,1.276,1.276,0,0,0,.487.723,1.418,1.418,0,0,0,.806.222,1.287,1.287,0,0,0,.807-.236,1.344,1.344,0,0,0,.445-.7,4.058,4.058,0,0,0,.139-1.154v-1.335h3.531v1.084a5.291,5.291,0,0,1-1.223,3.754,4.87,4.87,0,0,1-3.726,1.307m-1.418-9.982h2.836v-1.529a5.349,5.349,0,0,0-.139-1.349,1.368,1.368,0,0,0-.445-.751,1.386,1.386,0,0,0-.862-.236,1.232,1.232,0,0,0-.806.25,1.489,1.489,0,0,0-.445.834,7.631,7.631,0,0,0-.139,1.668Z" transform="translate(-176.737 -76.51)" fill="#72c45f"/>
      <rect id="Rectangle_2707" data-name="Rectangle 2707" width="3.754" height="22.523" transform="translate(196.224 73.497)" fill="#72c45f"/>
      <rect id="Rectangle_2708" data-name="Rectangle 2708" width="3.754" height="22.523" transform="translate(202.396 73.497)" fill="#72c45f"/>
      <path id="Path_469" data-name="Path 469" d="M408.524,145.525h3.782v3.142h-3.782Zm0,5.7h3.782V167.3h-3.782Z" transform="translate(-200.094 -71.278)" fill="#72c45f"/>
      <path id="Path_470" data-name="Path 470" d="M424.14,177.439a11.264,11.264,0,0,1-2.892-.334,4.233,4.233,0,0,1-1.946-1.029,2.444,2.444,0,0,1-.7-1.808,2.8,2.8,0,0,1,.32-1.348,3.333,3.333,0,0,1,.876-1.043,6.165,6.165,0,0,1,1.2-.751,2.78,2.78,0,0,1-1.4-.807,1.957,1.957,0,0,1-.487-1.335,2.714,2.714,0,0,1,.473-1.613,8.815,8.815,0,0,1,1.307-1.418,4.305,4.305,0,0,1-1.293-1.738,8.6,8.6,0,0,1,.167-5.84,4.125,4.125,0,0,1,1.752-1.9,5.754,5.754,0,0,1,2.822-.639,5.373,5.373,0,0,1,2.141.375,3.456,3.456,0,0,1,1.418,1.126,4.925,4.925,0,0,1,.779-.834,5.05,5.05,0,0,1,1.279-.834l.5-.223.918,2.03c-.2.056-.478.149-.82.278s-.681.269-1.015.417a7.494,7.494,0,0,0-.778.389,6.575,6.575,0,0,1,.417,1.39,8.1,8.1,0,0,1,.167,1.585,7.543,7.543,0,0,1-.529,2.947,4.071,4.071,0,0,1-1.627,1.933,5.336,5.336,0,0,1-2.85.681,6.605,6.605,0,0,1-1.14-.1,9.159,9.159,0,0,1-1.029-.237q-.167.25-.32.529a1.193,1.193,0,0,0-.153.584.572.572,0,0,0,.334.5,2.961,2.961,0,0,0,1.112.278l3.392.334a4.366,4.366,0,0,1,2.919,1.237,4.045,4.045,0,0,1,.945,2.822,4.247,4.247,0,0,1-.654,2.419,3.986,3.986,0,0,1-2.03,1.473,10.646,10.646,0,0,1-3.573.5m.417-2.837a6.744,6.744,0,0,0,2.336-.306,1.112,1.112,0,0,0,.779-1.112,1.237,1.237,0,0,0-.194-.723,1.4,1.4,0,0,0-.7-.459,5.967,5.967,0,0,0-1.418-.264l-2.753-.25a4.823,4.823,0,0,0-.542.514,2.223,2.223,0,0,0-.375.57,1.516,1.516,0,0,0-.139.639,1.116,1.116,0,0,0,.667,1.043,5.521,5.521,0,0,0,2.336.347m-.222-9.927a1.578,1.578,0,0,0,.807-.181,1.169,1.169,0,0,0,.472-.584,3.512,3.512,0,0,0,.222-1.015q.056-.612.056-1.418t-.056-1.418a4.12,4.12,0,0,0-.209-1.029,1.176,1.176,0,0,0-.459-.612,1.853,1.853,0,0,0-1.655,0,1.147,1.147,0,0,0-.472.6,4.243,4.243,0,0,0-.222,1.015,12.877,12.877,0,0,0-.069,1.446q0,.779.055,1.377a3.5,3.5,0,0,0,.222,1,1.3,1.3,0,0,0,.487.612,1.478,1.478,0,0,0,.82.209" transform="translate(-205.032 -76.136)" fill="#72c45f"/>
      <path id="Path_471" data-name="Path 471" d="M448.576,172.78a5.685,5.685,0,0,1-2.947-.681,4.037,4.037,0,0,1-1.682-2,8.372,8.372,0,0,1-.542-3.184v-4.838a8.434,8.434,0,0,1,.542-3.226,3.954,3.954,0,0,1,1.7-1.974,5.8,5.8,0,0,1,2.934-.667,5.3,5.3,0,0,1,2.989.723,3.944,3.944,0,0,1,1.529,2.1,10.691,10.691,0,0,1,.459,3.351v2.28h-6.4v3.17a4.465,4.465,0,0,0,.153,1.28,1.276,1.276,0,0,0,.487.723,1.418,1.418,0,0,0,.806.222,1.287,1.287,0,0,0,.807-.236,1.344,1.344,0,0,0,.445-.7,4.056,4.056,0,0,0,.139-1.154v-1.335h3.531v1.084a5.291,5.291,0,0,1-1.223,3.754,4.87,4.87,0,0,1-3.726,1.307m-1.418-9.982h2.836v-1.529a5.346,5.346,0,0,0-.139-1.349,1.368,1.368,0,0,0-.445-.751,1.386,1.386,0,0,0-.862-.236,1.232,1.232,0,0,0-.806.25,1.489,1.489,0,0,0-.445.834,7.633,7.633,0,0,0-.139,1.668Z" transform="translate(-217.178 -76.51)" fill="#72c45f"/>
      <path id="Path_472" data-name="Path 472" d="M466.675,172.53V156.458h3.782v1.613a8.179,8.179,0,0,1,1.821-1.348,4.315,4.315,0,0,1,2.071-.514,2.4,2.4,0,0,1,1.585.486,2.847,2.847,0,0,1,.862,1.293,5.349,5.349,0,0,1,.278,1.752V172.53h-3.782V160.49a2.272,2.272,0,0,0-.222-1.112.905.905,0,0,0-.862-.389,1.959,1.959,0,0,0-.849.222,5.576,5.576,0,0,0-.9.556V172.53Z" transform="translate(-228.576 -76.51)" fill="#72c45f"/>
      <path id="Path_473" data-name="Path 473" d="M495.417,172.781a5.55,5.55,0,0,1-2.989-.709,4.064,4.064,0,0,1-1.64-2.03,8.6,8.6,0,0,1-.515-3.128v-4.838a8.661,8.661,0,0,1,.515-3.17,3.975,3.975,0,0,1,1.654-2,5.658,5.658,0,0,1,2.975-.695,6.381,6.381,0,0,1,2.822.542,3.315,3.315,0,0,1,1.6,1.641,6.682,6.682,0,0,1,.5,2.767v1.334H496.78v-1.418a5.519,5.519,0,0,0-.125-1.321,1.147,1.147,0,0,0-.431-.7,1.411,1.411,0,0,0-.807-.209,1.189,1.189,0,0,0-.807.265,1.5,1.5,0,0,0-.431.848,8.078,8.078,0,0,0-.125,1.613v5.895a4.457,4.457,0,0,0,.333,2.1,1.149,1.149,0,0,0,1.057.543,1.107,1.107,0,0,0,1.237-.987,6.14,6.14,0,0,0,.1-1.182v-1.724h3.559v1.529a6.664,6.664,0,0,1-.514,2.753,3.487,3.487,0,0,1-1.612,1.71,6.052,6.052,0,0,1-2.795.57" transform="translate(-240.134 -76.511)" fill="#72c45f"/>
      <path id="Path_474" data-name="Path 474" d="M517.79,172.78a5.684,5.684,0,0,1-2.947-.681,4.036,4.036,0,0,1-1.682-2,8.371,8.371,0,0,1-.542-3.184v-4.838a8.433,8.433,0,0,1,.542-3.226,3.953,3.953,0,0,1,1.7-1.974,5.8,5.8,0,0,1,2.934-.667,5.3,5.3,0,0,1,2.989.723,3.944,3.944,0,0,1,1.529,2.1,10.693,10.693,0,0,1,.459,3.351v2.28h-6.4v3.17a4.465,4.465,0,0,0,.153,1.28,1.276,1.276,0,0,0,.487.723,1.418,1.418,0,0,0,.806.222,1.287,1.287,0,0,0,.807-.236,1.344,1.344,0,0,0,.445-.7,4.059,4.059,0,0,0,.139-1.154v-1.335h3.531v1.084a5.291,5.291,0,0,1-1.223,3.754,4.87,4.87,0,0,1-3.726,1.307m-1.418-9.982h2.836v-1.529a5.349,5.349,0,0,0-.139-1.349,1.368,1.368,0,0,0-.445-.751,1.386,1.386,0,0,0-.862-.236,1.232,1.232,0,0,0-.806.25,1.489,1.489,0,0,0-.445.834,7.629,7.629,0,0,0-.139,1.668Z" transform="translate(-251.079 -76.51)" fill="#72c45f"/>
    </g>
  </g>
</svg>
