<svg xmlns="http://www.w3.org/2000/svg" width="25.659" height="12.429" viewBox="0 0 25.659 12.429">
  <g id="Group_86" data-name="Group 86" transform="translate(-1091.669 -446.297)">
    <path id="Path_73" data-name="Path 73" d="M679.471,155.218a2.018,2.018,0,1,1,1.239,1.872,1.992,1.992,0,0,1-1.083-1.083A2.02,2.02,0,0,1,679.471,155.218Z" transform="translate(433.801 301.48)" fill="#43b02a"/>
    <path id="Path_75" data-name="Path 75" d="M43.514,80.948H47.7V82.4a5.411,5.411,0,0,1,3.837-1.641,4.462,4.462,0,0,1,4.022,2.219,4.486,4.486,0,0,1,4.022-2.242,5.011,5.011,0,0,1,1.572.243,3.233,3.233,0,0,1,1.271.763,3.652,3.652,0,0,1,.844,1.352,5.746,5.746,0,0,1,.312,2.011v7.7H59.393V86.958a7.1,7.1,0,0,0-.127-1.479,2.342,2.342,0,0,0-.37-.9,1.228,1.228,0,0,0-.566-.439,2.053,2.053,0,0,0-.693-.116q-2.011,0-2.011,2.935v5.848H51.442V86.958a7.966,7.966,0,0,0-.116-1.491,2.754,2.754,0,0,0-.335-.936,1.122,1.122,0,0,0-.566-.474,2.354,2.354,0,0,0-.809-.127,2.325,2.325,0,0,0-.74.116,1.315,1.315,0,0,0-.613.451,2.453,2.453,0,0,0-.416.925,6.4,6.4,0,0,0-.15,1.537v5.848H43.514Z" transform="translate(1048.155 365.557)" fill="#fff"/>
  </g>
</svg>
