<svg xmlns="http://www.w3.org/2000/svg" width="77.554" height="15.856" viewBox="0 0 77.554 15.856">
  <g id="Group_84" data-name="Group 84" transform="translate(-150 -135.801)">
    <path id="Path_1" data-name="Path 1" d="M43.514,80.948H47.7V82.4a5.411,5.411,0,0,1,3.837-1.641,4.462,4.462,0,0,1,4.022,2.219,4.486,4.486,0,0,1,4.022-2.242,5.011,5.011,0,0,1,1.572.243,3.233,3.233,0,0,1,1.271.763,3.652,3.652,0,0,1,.844,1.352,5.746,5.746,0,0,1,.312,2.011v7.7H59.393V86.958a7.1,7.1,0,0,0-.127-1.479,2.342,2.342,0,0,0-.37-.9,1.228,1.228,0,0,0-.566-.439,2.053,2.053,0,0,0-.693-.116q-2.011,0-2.011,2.935v5.848H51.442V86.958a7.966,7.966,0,0,0-.116-1.491,2.754,2.754,0,0,0-.335-.936,1.122,1.122,0,0,0-.566-.474,2.354,2.354,0,0,0-.809-.127,2.325,2.325,0,0,0-.74.116,1.314,1.314,0,0,0-.613.451,2.453,2.453,0,0,0-.416.925,6.4,6.4,0,0,0-.15,1.537v5.848H43.514Z" transform="translate(106.486 58.413)" fill="#fff"/>
    <path id="Path_2" data-name="Path 2" d="M236.567,79.71h4.207V91.567h-4.207V90.25a4.389,4.389,0,0,1-3.629,1.687,5.9,5.9,0,0,1-2.381-.474,5.731,5.731,0,0,1-1.9-1.329,6.124,6.124,0,0,1-1.26-2.011,6.876,6.876,0,0,1-.451-2.519,6.677,6.677,0,0,1,.439-2.415,6.2,6.2,0,0,1,1.225-2,5.78,5.78,0,0,1,1.872-1.352,5.713,5.713,0,0,1,2.4-.5,4.83,4.83,0,0,1,3.675,1.549ZM231.3,85.6a2.766,2.766,0,0,0,.775,1.942,2.535,2.535,0,0,0,.855.578,2.755,2.755,0,0,0,1.075.208,2.7,2.7,0,0,0,1.052-.208,2.543,2.543,0,0,0,.855-.578,2.994,2.994,0,0,0,.578-.855,2.5,2.5,0,0,0,.22-1.04,2.578,2.578,0,0,0-.22-1.052,2.956,2.956,0,0,0-.578-.867,2.55,2.55,0,0,0-.855-.578A2.7,2.7,0,0,0,234,82.946a2.755,2.755,0,0,0-1.075.208,2.542,2.542,0,0,0-.855.578,2.844,2.844,0,0,0-.566.844A2.529,2.529,0,0,0,231.3,85.6Z" transform="translate(-55.752 59.651)" fill="#fff"/>
    <path id="Path_3" data-name="Path 3" d="M360.9,58.79v8.367h-4.183V58.79h-1.387V55.3h1.387V51.74H360.9V55.3h2.381v3.49Z" transform="translate(-169.293 84.061)" fill="#fff"/>
    <path id="Path_4" data-name="Path 4" d="M427.757,58.79v8.367h-4.184V58.79h-1.387V55.3h1.387V51.74h4.184V55.3h2.381v3.49Z" transform="translate(-228.423 84.061)" fill="#fff"/>
    <path id="Path_5" data-name="Path 5" d="M495.555,85.813q0,2.7,2.542,2.7a2.271,2.271,0,0,0,2.057-1.109H504.2q-1.225,4.068-6.125,4.068a8.046,8.046,0,0,1-2.75-.451,6.136,6.136,0,0,1-2.138-1.283,5.716,5.716,0,0,1-1.375-1.988,6.621,6.621,0,0,1-.485-2.589,7.317,7.317,0,0,1,.462-2.67,5.612,5.612,0,0,1,1.317-2.022,5.837,5.837,0,0,1,2.069-1.283,7.825,7.825,0,0,1,2.739-.451,7.657,7.657,0,0,1,2.7.451,5.48,5.48,0,0,1,2.034,1.306,5.684,5.684,0,0,1,1.271,2.092,8.3,8.3,0,0,1,.439,2.785v.439Zm4.9-2.427a2.521,2.521,0,0,0-.855-1.41,2.653,2.653,0,0,0-3.155-.023,2.3,2.3,0,0,0-.774,1.433Z" transform="translate(-289.572 60.181)" fill="#fff"/>
    <path id="Path_6" data-name="Path 6" d="M614.9,80.594h4.183v1.942a4.81,4.81,0,0,1,1.641-1.63,4.417,4.417,0,0,1,2.265-.566h.358a2.577,2.577,0,0,1,.451.046v4a3.976,3.976,0,0,0-1.8-.416,2.691,2.691,0,0,0-2.184.867,3.843,3.843,0,0,0-.728,2.531v5.085H614.9Z" transform="translate(-398.868 58.766)" fill="#fff"/>
    <path id="Path_7" data-name="Path 7" d="M679.471,155.218a2.021,2.021,0,0,1,.156-.789,2.018,2.018,0,0,1,1.872-1.239,2.035,2.035,0,0,1,1.872,2.817,2.028,2.028,0,0,1-3.9-.789Z" transform="translate(-455.974 -5.664)" fill="#43b02a"/>
  </g>
</svg>
