<svg xmlns="http://www.w3.org/2000/svg" width="30" height="30" viewBox="0 0 30 30">
  <path id="Path_351" data-name="Path 351" d="M10,7.25a4.688,4.688,0,1,0,4.688,4.688A4.686,4.686,0,0,0,10,7.25Zm0,8.438a3.75,3.75,0,1,1,3.75-3.75A3.754,3.754,0,0,1,10,15.688ZM10-.25a15,15,0,1,0,15,15A15,15,0,0,0,10-.25Zm0,29.063a13.712,13.712,0,0,1-8.385-2.838,6.494,6.494,0,0,1,6.51-6.537h3.75a6.5,6.5,0,0,1,6.51,6.539A13.738,13.738,0,0,1,10,28.813Zm9.3-3.545A7.471,7.471,0,0,0,11.875,18.5H8.125A7.47,7.47,0,0,0,.7,25.268a14.063,14.063,0,1,1,18.6,0Z" transform="translate(5 0.25)"/>
</svg>
