<svg xmlns="http://www.w3.org/2000/svg" width="14" height="27.951" viewBox="0 0 14 27.951">
  <path id="Path_346" data-name="Path 346" d="M27.625,21.5a2.625,2.625,0,1,1-2.674-2.625A2.7,2.7,0,0,1,27.625,21.5Zm2.625-4.627a7,7,0,0,1-5.2,11.627h-.1A7.018,7.018,0,0,1,18,21.467a7.181,7.181,0,0,1,1.7-4.594V5.75a5.168,5.168,0,0,1,5.2-5.2,5.3,5.3,0,0,1,5.348,5.2Zm0,4.627a5.823,5.823,0,0,0-1.7-3.965V5.75A3.5,3.5,0,0,0,25.1,2.25a3.625,3.625,0,0,0-3.6,3.5V17.535a5.382,5.382,0,0,0-1.7,3.938,5.2,5.2,0,0,0,5.168,5.277H25A5.258,5.258,0,0,0,30.25,21.5Z" transform="translate(-18 -0.549)" fill="#fff"/>
</svg>
