<svg xmlns="http://www.w3.org/2000/svg" width="17.506" height="8.777" viewBox="0 0 17.506 8.777">
  <g id="Group_154" data-name="Group 154" transform="translate(828.506 -627) rotate(90)">
    <g id="Path_248" data-name="Path 248" transform="translate(628.254 811)" fill="none">
      <path d="M3.293,0A3.213,3.213,0,0,1,6.585,3.126V14.38a3.213,3.213,0,0,1-3.293,3.126A3.213,3.213,0,0,1,0,14.38V3.126A3.213,3.213,0,0,1,3.293,0Z" stroke="none"/>
      <path d="M 3.292728185653687 0.7499980926513672 C 1.890658378601074 0.7499980926513672 0.7499980926513672 1.81586742401123 0.7499980926513672 3.125997543334961 L 0.7499980926513672 14.37960815429688 C 0.7499980926513672 15.68974781036377 1.890658378601074 16.75561714172363 3.292728185653687 16.75561714172363 C 4.694798469543457 16.75561714172363 5.835458278656006 15.68974781036377 5.835458278656006 14.37960815429688 L 5.835458278656006 3.125997543334961 C 5.835458278656006 1.81586742401123 4.694798469543457 0.7499980926513672 3.292728185653687 0.7499980926513672 M 3.292728185653687 -1.9073486328125e-06 C 5.111248016357422 -1.9073486328125e-06 6.585458278656006 1.399557113647461 6.585458278656006 3.125997543334961 L 6.585458278656006 14.37960815429688 C 6.585458278656006 16.10605812072754 5.111248016357422 17.50561714172363 3.292728185653687 17.50561714172363 C 1.474208354949951 17.50561714172363 -1.9073486328125e-06 16.10605812072754 -1.9073486328125e-06 14.37960815429688 L -1.9073486328125e-06 3.125997543334961 C -1.9073486328125e-06 1.399557113647461 1.474208354949951 -1.9073486328125e-06 3.292728185653687 -1.9073486328125e-06 Z" stroke="none" fill="#fff"/>
    </g>
    <g id="Ellipse_67" data-name="Ellipse 67" transform="translate(627 811)" fill="#47e562" stroke="#fff" stroke-width="0.75">
      <circle cx="4.389" cy="4.389" r="4.389" stroke="none"/>
      <circle cx="4.389" cy="4.389" r="4.014" fill="none"/>
    </g>
  </g>
</svg>
